<svg width="219" height="54" viewBox="0 0 219 54" fill="none" xmlns="http://www.w3.org/2000/svg">
<g filter="url(#filter0_ii_3940_11007)">
<rect width="219" height="54" rx="27" fill="#AFE274"/>
<rect x="0.5" y="0.5" width="218" height="53" rx="26.5" stroke="#A4C47D"/>
<path d="M25.2 20.672H29.152C29.952 20.672 30.6507 20.7627 31.248 20.944C31.856 21.1253 32.3787 21.3707 32.816 21.68C33.264 21.9787 33.632 22.3253 33.92 22.72C34.2187 23.1147 34.4533 23.52 34.624 23.936C34.7947 24.352 34.9173 24.768 34.992 25.184C35.0667 25.6 35.104 25.984 35.104 26.336C35.104 27.0613 34.9707 27.7653 34.704 28.448C34.4373 29.12 34.0427 29.7227 33.52 30.256C32.9973 30.7787 32.3467 31.2 31.568 31.52C30.8 31.84 29.9093 32 28.896 32H25.2V20.672ZM26.736 30.56H28.672C29.3227 30.56 29.936 30.4747 30.512 30.304C31.0987 30.1227 31.6107 29.856 32.048 29.504C32.4853 29.152 32.832 28.7147 33.088 28.192C33.344 27.6587 33.472 27.04 33.472 26.336C33.472 25.9733 33.4133 25.552 33.296 25.072C33.1787 24.5813 32.9547 24.1173 32.624 23.68C32.304 23.2427 31.856 22.8747 31.28 22.576C30.704 22.2667 29.9573 22.112 29.04 22.112H26.736V30.56ZM38.1154 28.208C38.1154 28.592 38.174 28.9493 38.2914 29.28C38.4087 29.6 38.574 29.8773 38.7874 30.112C39.0007 30.336 39.262 30.5173 39.5714 30.656C39.8807 30.784 40.2274 30.848 40.6114 30.848C40.9954 30.848 41.342 30.784 41.6514 30.656C41.9607 30.5173 42.222 30.336 42.4354 30.112C42.6487 29.8773 42.814 29.6 42.9314 29.28C43.0487 28.9493 43.1074 28.592 43.1074 28.208C43.1074 27.824 43.0487 27.472 42.9314 27.152C42.814 26.8213 42.6487 26.544 42.4354 26.32C42.222 26.0853 41.9607 25.904 41.6514 25.776C41.342 25.6373 40.9954 25.568 40.6114 25.568C40.2274 25.568 39.8807 25.6373 39.5714 25.776C39.262 25.904 39.0007 26.0853 38.7874 26.32C38.574 26.544 38.4087 26.8213 38.2914 27.152C38.174 27.472 38.1154 27.824 38.1154 28.208ZM36.5794 28.208C36.5794 27.6533 36.6807 27.136 36.8834 26.656C37.0967 26.176 37.3847 25.7547 37.7474 25.392C38.11 25.0293 38.5367 24.7467 39.0274 24.544C39.518 24.3307 40.046 24.224 40.6114 24.224C41.1767 24.224 41.7047 24.3307 42.1954 24.544C42.686 24.7467 43.1127 25.0293 43.4754 25.392C43.838 25.7547 44.1207 26.176 44.3234 26.656C44.5367 27.136 44.6434 27.6533 44.6434 28.208C44.6434 28.7627 44.5367 29.2853 44.3234 29.776C44.1207 30.256 43.838 30.6773 43.4754 31.04C43.1127 31.392 42.686 31.6747 42.1954 31.888C41.7047 32.0907 41.1767 32.192 40.6114 32.192C40.046 32.192 39.518 32.0907 39.0274 31.888C38.5367 31.6747 38.11 31.392 37.7474 31.04C37.3847 30.6773 37.0967 30.256 36.8834 29.776C36.6807 29.2853 36.5794 28.7627 36.5794 28.208ZM45.5354 24.416H47.1514L48.8634 30.08H48.8954L50.7034 24.416H52.2234L54.1434 30.08H54.1754L55.8074 24.416H57.3274L54.8794 32H53.4234L51.4234 26.336H51.3914L49.5834 32H48.0314L45.5354 24.416ZM58.588 24.416H60.028V25.584H60.06C60.2413 25.1787 60.556 24.8533 61.004 24.608C61.452 24.352 61.9693 24.224 62.556 24.224C62.9187 24.224 63.2653 24.2827 63.596 24.4C63.9373 24.5067 64.2307 24.6773 64.476 24.912C64.732 25.1467 64.9347 25.4507 65.084 25.824C65.2333 26.1867 65.308 26.6187 65.308 27.12V32H63.868V27.52C63.868 27.168 63.82 26.8693 63.724 26.624C63.628 26.368 63.5 26.1653 63.34 26.016C63.18 25.856 62.9933 25.744 62.78 25.68C62.5773 25.6053 62.364 25.568 62.14 25.568C61.8413 25.568 61.564 25.616 61.308 25.712C61.052 25.808 60.828 25.9627 60.636 26.176C60.444 26.3787 60.2947 26.64 60.188 26.96C60.0813 27.28 60.028 27.6587 60.028 28.096V32H58.588V24.416ZM67.5906 19.904H69.0306V32H67.5906V19.904ZM72.4904 28.208C72.4904 28.592 72.549 28.9493 72.6664 29.28C72.7837 29.6 72.949 29.8773 73.1624 30.112C73.3757 30.336 73.637 30.5173 73.9464 30.656C74.2557 30.784 74.6024 30.848 74.9864 30.848C75.3704 30.848 75.717 30.784 76.0264 30.656C76.3357 30.5173 76.597 30.336 76.8104 30.112C77.0237 29.8773 77.189 29.6 77.3064 29.28C77.4237 28.9493 77.4824 28.592 77.4824 28.208C77.4824 27.824 77.4237 27.472 77.3064 27.152C77.189 26.8213 77.0237 26.544 76.8104 26.32C76.597 26.0853 76.3357 25.904 76.0264 25.776C75.717 25.6373 75.3704 25.568 74.9864 25.568C74.6024 25.568 74.2557 25.6373 73.9464 25.776C73.637 25.904 73.3757 26.0853 73.1624 26.32C72.949 26.544 72.7837 26.8213 72.6664 27.152C72.549 27.472 72.4904 27.824 72.4904 28.208ZM70.9544 28.208C70.9544 27.6533 71.0557 27.136 71.2584 26.656C71.4717 26.176 71.7597 25.7547 72.1224 25.392C72.485 25.0293 72.9117 24.7467 73.4024 24.544C73.893 24.3307 74.421 24.224 74.9864 24.224C75.5517 24.224 76.0797 24.3307 76.5704 24.544C77.061 24.7467 77.4877 25.0293 77.8504 25.392C78.213 25.7547 78.4957 26.176 78.6984 26.656C78.9117 27.136 79.0184 27.6533 79.0184 28.208C79.0184 28.7627 78.9117 29.2853 78.6984 29.776C78.4957 30.256 78.213 30.6773 77.8504 31.04C77.4877 31.392 77.061 31.6747 76.5704 31.888C76.0797 32.0907 75.5517 32.192 74.9864 32.192C74.421 32.192 73.893 32.0907 73.4024 31.888C72.9117 31.6747 72.485 31.392 72.1224 31.04C71.7597 30.6773 71.4717 30.256 71.2584 29.776C71.0557 29.2853 70.9544 28.7627 70.9544 28.208ZM80.8544 25.344C81.2597 24.9707 81.729 24.6933 82.2624 24.512C82.7957 24.32 83.329 24.224 83.8624 24.224C84.417 24.224 84.8917 24.2933 85.2864 24.432C85.6917 24.5707 86.0224 24.7573 86.2784 24.992C86.5344 25.2267 86.721 25.4987 86.8384 25.808C86.9664 26.1067 87.0304 26.4213 87.0304 26.752V30.624C87.0304 30.8907 87.0357 31.136 87.0464 31.36C87.057 31.584 87.073 31.7973 87.0944 32H85.8144C85.7824 31.616 85.7664 31.232 85.7664 30.848H85.7344C85.4144 31.3387 85.0357 31.6853 84.5984 31.888C84.161 32.0907 83.6544 32.192 83.0784 32.192C82.7264 32.192 82.3904 32.144 82.0704 32.048C81.7504 31.952 81.4677 31.808 81.2224 31.616C80.9877 31.424 80.801 31.1893 80.6624 30.912C80.5237 30.624 80.4544 30.2933 80.4544 29.92C80.4544 29.4293 80.561 29.0187 80.7744 28.688C80.9984 28.3573 81.297 28.0907 81.6704 27.888C82.0544 27.6747 82.497 27.5253 82.9984 27.44C83.5104 27.344 84.0544 27.296 84.6304 27.296H85.6864V26.976C85.6864 26.784 85.649 26.592 85.5744 26.4C85.4997 26.208 85.3877 26.0373 85.2384 25.888C85.089 25.728 84.9024 25.6053 84.6784 25.52C84.4544 25.424 84.1877 25.376 83.8784 25.376C83.601 25.376 83.3557 25.4027 83.1424 25.456C82.9397 25.5093 82.753 25.5787 82.5824 25.664C82.4117 25.7387 82.257 25.8293 82.1184 25.936C81.9797 26.0427 81.8464 26.144 81.7184 26.24L80.8544 25.344ZM84.9184 28.352C84.577 28.352 84.225 28.3733 83.8624 28.416C83.5104 28.448 83.185 28.5173 82.8864 28.624C82.5984 28.7307 82.3584 28.88 82.1664 29.072C81.985 29.264 81.8944 29.5093 81.8944 29.808C81.8944 30.2453 82.0384 30.56 82.3264 30.752C82.625 30.944 83.025 31.04 83.5264 31.04C83.921 31.04 84.257 30.976 84.5344 30.848C84.8117 30.7093 85.0357 30.5333 85.2064 30.32C85.377 30.1067 85.4997 29.872 85.5744 29.616C85.649 29.3493 85.6864 29.088 85.6864 28.832V28.352H84.9184ZM96.7193 32H95.2793V30.912H95.2473C94.9699 31.3173 94.5859 31.632 94.0953 31.856C93.6153 32.08 93.1193 32.192 92.6073 32.192C92.0206 32.192 91.4873 32.0907 91.0073 31.888C90.5379 31.6853 90.1326 31.4027 89.7913 31.04C89.4606 30.6773 89.2046 30.256 89.0233 29.776C88.8419 29.296 88.7513 28.7733 88.7513 28.208C88.7513 27.6427 88.8419 27.12 89.0233 26.64C89.2046 26.1493 89.4606 25.728 89.7913 25.376C90.1326 25.0133 90.5379 24.7307 91.0073 24.528C91.4873 24.3253 92.0206 24.224 92.6073 24.224C93.1513 24.224 93.6633 24.3413 94.1433 24.576C94.6233 24.8 94.9913 25.1093 95.2473 25.504H95.2793V19.904H96.7193V32ZM92.7833 30.848C93.1673 30.848 93.5139 30.784 93.8233 30.656C94.1326 30.5173 94.3939 30.336 94.6073 30.112C94.8206 29.8773 94.9859 29.6 95.1033 29.28C95.2206 28.9493 95.2793 28.592 95.2793 28.208C95.2793 27.824 95.2206 27.472 95.1033 27.152C94.9859 26.8213 94.8206 26.544 94.6073 26.32C94.3939 26.0853 94.1326 25.904 93.8233 25.776C93.5139 25.6373 93.1673 25.568 92.7833 25.568C92.3993 25.568 92.0526 25.6373 91.7433 25.776C91.4339 25.904 91.1726 26.0853 90.9593 26.32C90.7459 26.544 90.5806 26.8213 90.4633 27.152C90.3459 27.472 90.2873 27.824 90.2873 28.208C90.2873 28.592 90.3459 28.9493 90.4633 29.28C90.5806 29.6 90.7459 29.8773 90.9593 30.112C91.1726 30.336 91.4339 30.5173 91.7433 30.656C92.0526 30.784 92.3993 30.848 92.7833 30.848ZM103.386 25.344C103.791 24.9707 104.26 24.6933 104.794 24.512C105.327 24.32 105.86 24.224 106.394 24.224C106.948 24.224 107.423 24.2933 107.818 24.432C108.223 24.5707 108.554 24.7573 108.81 24.992C109.066 25.2267 109.252 25.4987 109.37 25.808C109.498 26.1067 109.562 26.4213 109.562 26.752V30.624C109.562 30.8907 109.567 31.136 109.578 31.36C109.588 31.584 109.604 31.7973 109.626 32H108.346C108.314 31.616 108.298 31.232 108.298 30.848H108.266C107.946 31.3387 107.567 31.6853 107.13 31.888C106.692 32.0907 106.186 32.192 105.61 32.192C105.258 32.192 104.922 32.144 104.602 32.048C104.282 31.952 103.999 31.808 103.754 31.616C103.519 31.424 103.332 31.1893 103.194 30.912C103.055 30.624 102.986 30.2933 102.986 29.92C102.986 29.4293 103.092 29.0187 103.306 28.688C103.53 28.3573 103.828 28.0907 104.202 27.888C104.586 27.6747 105.028 27.5253 105.53 27.44C106.042 27.344 106.586 27.296 107.162 27.296H108.218V26.976C108.218 26.784 108.18 26.592 108.106 26.4C108.031 26.208 107.919 26.0373 107.77 25.888C107.62 25.728 107.434 25.6053 107.21 25.52C106.986 25.424 106.719 25.376 106.41 25.376C106.132 25.376 105.887 25.4027 105.674 25.456C105.471 25.5093 105.284 25.5787 105.114 25.664C104.943 25.7387 104.788 25.8293 104.65 25.936C104.511 26.0427 104.378 26.144 104.25 26.24L103.386 25.344ZM107.45 28.352C107.108 28.352 106.756 28.3733 106.394 28.416C106.042 28.448 105.716 28.5173 105.418 28.624C105.13 28.7307 104.89 28.88 104.698 29.072C104.516 29.264 104.426 29.5093 104.426 29.808C104.426 30.2453 104.57 30.56 104.858 30.752C105.156 30.944 105.556 31.04 106.058 31.04C106.452 31.04 106.788 30.976 107.066 30.848C107.343 30.7093 107.567 30.5333 107.738 30.32C107.908 30.1067 108.031 29.872 108.106 29.616C108.18 29.3493 108.218 29.088 108.218 28.832V28.352H107.45ZM111.651 24.416H113.091V25.504H113.123C113.4 25.0987 113.779 24.784 114.259 24.56C114.749 24.336 115.251 24.224 115.763 24.224C116.349 24.224 116.877 24.3253 117.347 24.528C117.827 24.7307 118.232 25.0133 118.562 25.376C118.904 25.7387 119.165 26.1653 119.347 26.656C119.528 27.136 119.619 27.6533 119.619 28.208C119.619 28.7733 119.528 29.3013 119.347 29.792C119.165 30.272 118.904 30.6933 118.562 31.056C118.232 31.408 117.827 31.6853 117.347 31.888C116.877 32.0907 116.349 32.192 115.763 32.192C115.219 32.192 114.707 32.08 114.227 31.856C113.747 31.6213 113.379 31.3067 113.123 30.912H113.091V36.512H111.651V24.416ZM115.587 25.568C115.203 25.568 114.856 25.6373 114.547 25.776C114.237 25.904 113.976 26.0853 113.763 26.32C113.549 26.544 113.384 26.8213 113.267 27.152C113.149 27.472 113.091 27.824 113.091 28.208C113.091 28.592 113.149 28.9493 113.267 29.28C113.384 29.6 113.549 29.8773 113.763 30.112C113.976 30.336 114.237 30.5173 114.547 30.656C114.856 30.784 115.203 30.848 115.587 30.848C115.971 30.848 116.317 30.784 116.627 30.656C116.936 30.5173 117.197 30.336 117.411 30.112C117.624 29.8773 117.789 29.6 117.907 29.28C118.024 28.9493 118.083 28.592 118.083 28.208C118.083 27.824 118.024 27.472 117.907 27.152C117.789 26.8213 117.624 26.544 117.411 26.32C117.197 26.0853 116.936 25.904 116.627 25.776C116.317 25.6373 115.971 25.568 115.587 25.568ZM121.432 24.416H122.872V25.504H122.904C123.181 25.0987 123.56 24.784 124.04 24.56C124.53 24.336 125.032 24.224 125.544 24.224C126.13 24.224 126.658 24.3253 127.128 24.528C127.608 24.7307 128.013 25.0133 128.344 25.376C128.685 25.7387 128.946 26.1653 129.128 26.656C129.309 27.136 129.4 27.6533 129.4 28.208C129.4 28.7733 129.309 29.3013 129.128 29.792C128.946 30.272 128.685 30.6933 128.344 31.056C128.013 31.408 127.608 31.6853 127.128 31.888C126.658 32.0907 126.13 32.192 125.544 32.192C125 32.192 124.488 32.08 124.008 31.856C123.528 31.6213 123.16 31.3067 122.904 30.912H122.872V36.512H121.432V24.416ZM125.368 25.568C124.984 25.568 124.637 25.6373 124.328 25.776C124.018 25.904 123.757 26.0853 123.544 26.32C123.33 26.544 123.165 26.8213 123.048 27.152C122.93 27.472 122.872 27.824 122.872 28.208C122.872 28.592 122.93 28.9493 123.048 29.28C123.165 29.6 123.33 29.8773 123.544 30.112C123.757 30.336 124.018 30.5173 124.328 30.656C124.637 30.784 124.984 30.848 125.368 30.848C125.752 30.848 126.098 30.784 126.408 30.656C126.717 30.5173 126.978 30.336 127.192 30.112C127.405 29.8773 127.57 29.6 127.688 29.28C127.805 28.9493 127.864 28.592 127.864 28.208C127.864 27.824 127.805 27.472 127.688 27.152C127.57 26.8213 127.405 26.544 127.192 26.32C126.978 26.0853 126.717 25.904 126.408 25.776C126.098 25.6373 125.752 25.568 125.368 25.568Z" fill="#242323"/>
<path d="M160.915 25.0907L147.267 17.2893C146.933 17.0986 146.554 16.999 146.169 17.0005C145.785 17.002 145.407 17.1045 145.074 17.2977C144.741 17.491 144.465 17.7682 144.273 18.1017C144.081 18.4352 143.979 18.8133 143.979 19.1982V34.8011C143.979 35.1862 144.08 35.5646 144.273 35.8984C144.465 36.2322 144.741 36.5096 145.074 36.7029C145.408 36.8962 145.786 36.9986 146.171 36.9998C146.556 37.0011 146.935 36.9011 147.269 36.71L160.915 28.9082C161.251 28.7159 161.531 28.4381 161.726 28.1029C161.92 27.7677 162.023 27.387 162.023 26.9995C162.023 26.6119 161.92 26.2313 161.726 25.8961C161.531 25.5609 161.252 25.2831 160.915 25.0907ZM155.001 23.2461L153.127 25.8568L148.645 19.6129L155.001 23.2461ZM146.09 35.6586C145.967 35.6476 145.849 35.6103 145.742 35.5493C145.611 35.4729 145.502 35.3634 145.426 35.2318C145.351 35.1002 145.311 34.9511 145.311 34.7993V19.1982C145.31 18.9839 145.39 18.7771 145.534 18.6182C145.677 18.4593 145.875 18.3597 146.089 18.3389L152.306 26.9997L146.09 35.6586ZM148.645 34.3864L153.127 28.1425L155.001 30.7529L148.645 34.3864ZM160.252 27.7507L156.165 30.0879L153.948 26.9997L156.165 23.9114L160.254 26.2497C160.386 26.3253 160.496 26.4346 160.573 26.5665C160.649 26.6984 160.69 26.8482 160.69 27.0007C160.69 27.1532 160.649 27.303 160.573 27.4349C160.496 27.5668 160.386 27.6762 160.254 27.7518L160.252 27.7507Z" fill="#242323"/>
<line x1="169.25" y1="19.5" x2="169.25" y2="34.5" stroke="#474646" stroke-width="0.5"/>
<path d="M188.749 17C187.564 17.142 186.477 17.7302 185.711 18.645C185.048 19.4511 184.503 20.6486 184.716 21.8125C185.312 21.799 185.897 21.6512 186.428 21.38C186.958 21.1088 187.421 20.7214 187.782 20.2464C188.149 19.7961 188.424 19.2773 188.59 18.72C188.756 18.1628 188.81 17.5782 188.749 17Z" fill="#242323"/>
<path d="M192.963 23.7097C191.939 22.4262 190.5 21.6812 189.141 21.6812C187.348 21.6812 186.589 22.5383 185.343 22.5383C184.057 22.5383 183.082 21.6812 181.53 21.6812C180.007 21.6812 178.384 22.6122 177.355 24.2047C175.909 26.4472 176.157 30.6633 178.5 34.2547C179.339 35.5404 180.459 36.9847 181.924 36.9972C183.227 37.0097 183.595 36.1612 185.361 36.1522C187.128 36.1433 187.462 37.0094 188.764 36.9947C190.23 36.9837 191.411 35.3822 192.25 34.0972C192.756 33.3319 193.189 32.5198 193.541 31.6722C190.15 30.3837 189.607 25.5597 192.963 23.7097Z" fill="#242323"/>
</g>
<defs>
<filter id="filter0_ii_3940_11007" x="0" y="0" width="219" height="54" filterUnits="userSpaceOnUse" color-interpolation-filters="sRGB">
<feFlood flood-opacity="0" result="BackgroundImageFix"/>
<feBlend mode="normal" in="SourceGraphic" in2="BackgroundImageFix" result="shape"/>
<feColorMatrix in="SourceAlpha" type="matrix" values="0 0 0 0 0 0 0 0 0 0 0 0 0 0 0 0 0 0 127 0" result="hardAlpha"/>
<feOffset dy="4"/>
<feComposite in2="hardAlpha" operator="arithmetic" k2="-1" k3="1"/>
<feColorMatrix type="matrix" values="0 0 0 0 0.582708 0 0 0 0 0.698009 0 0 0 0 0.442185 0 0 0 0.25 0"/>
<feBlend mode="normal" in2="shape" result="effect1_innerShadow_3940_11007"/>
<feColorMatrix in="SourceAlpha" type="matrix" values="0 0 0 0 0 0 0 0 0 0 0 0 0 0 0 0 0 0 127 0" result="hardAlpha"/>
<feOffset dy="-4"/>
<feComposite in2="hardAlpha" operator="arithmetic" k2="-1" k3="1"/>
<feColorMatrix type="matrix" values="0 0 0 0 0.58023 0 0 0 0 0.771916 0 0 0 0 0.342274 0 0 0 0.55 0"/>
<feBlend mode="normal" in2="effect1_innerShadow_3940_11007" result="effect2_innerShadow_3940_11007"/>
</filter>
</defs>
</svg>
