<svg width="206" height="57" viewBox="0 0 206 57" fill="none" xmlns="http://www.w3.org/2000/svg">
<rect x="0.5" y="0.5" width="205" height="56" rx="28" fill="#F4F8EF"/>
<rect x="0.5" y="0.5" width="205" height="56" rx="28" stroke="#AFE274"/>
<path d="M32.018 21.256H33.818L36.626 31.444H36.662L39.668 21.256H41.648L44.654 31.444H44.69L47.498 21.256H49.298L45.59 34H43.772L40.676 23.596H40.64L37.562 34H35.744L32.018 21.256ZM49.7307 26.512C50.1867 26.092 50.7147 25.78 51.3147 25.576C51.9147 25.36 52.5147 25.252 53.1147 25.252C53.7387 25.252 54.2727 25.33 54.7167 25.486C55.1727 25.642 55.5447 25.852 55.8327 26.116C56.1207 26.38 56.3307 26.686 56.4627 27.034C56.6067 27.37 56.6787 27.724 56.6787 28.096V32.452C56.6787 32.752 56.6847 33.028 56.6967 33.28C56.7087 33.532 56.7267 33.772 56.7507 34H55.3107C55.2747 33.568 55.2567 33.136 55.2567 32.704H55.2207C54.8607 33.256 54.4347 33.646 53.9427 33.874C53.4507 34.102 52.8807 34.216 52.2327 34.216C51.8367 34.216 51.4587 34.162 51.0987 34.054C50.7387 33.946 50.4207 33.784 50.1447 33.568C49.8807 33.352 49.6707 33.088 49.5147 32.776C49.3587 32.452 49.2807 32.08 49.2807 31.66C49.2807 31.108 49.4007 30.646 49.6407 30.274C49.8927 29.902 50.2287 29.602 50.6487 29.374C51.0807 29.134 51.5787 28.966 52.1427 28.87C52.7187 28.762 53.3307 28.708 53.9787 28.708H55.1667V28.348C55.1667 28.132 55.1247 27.916 55.0407 27.7C54.9567 27.484 54.8307 27.292 54.6627 27.124C54.4947 26.944 54.2847 26.806 54.0327 26.71C53.7807 26.602 53.4807 26.548 53.1327 26.548C52.8207 26.548 52.5447 26.578 52.3047 26.638C52.0767 26.698 51.8667 26.776 51.6747 26.872C51.4827 26.956 51.3087 27.058 51.1527 27.178C50.9967 27.298 50.8467 27.412 50.7027 27.52L49.7307 26.512ZM54.3027 29.896C53.9187 29.896 53.5227 29.92 53.1147 29.968C52.7187 30.004 52.3527 30.082 52.0167 30.202C51.6927 30.322 51.4227 30.49 51.2067 30.706C51.0027 30.922 50.9007 31.198 50.9007 31.534C50.9007 32.026 51.0627 32.38 51.3867 32.596C51.7227 32.812 52.1727 32.92 52.7367 32.92C53.1807 32.92 53.5587 32.848 53.8707 32.704C54.1827 32.548 54.4347 32.35 54.6267 32.11C54.8187 31.87 54.9567 31.606 55.0407 31.318C55.1247 31.018 55.1667 30.724 55.1667 30.436V29.896H54.3027ZM63.6007 26.872H61.2787V30.742C61.2787 30.982 61.2847 31.222 61.2967 31.462C61.3087 31.69 61.3507 31.9 61.4227 32.092C61.5067 32.272 61.6267 32.422 61.7827 32.542C61.9507 32.65 62.1907 32.704 62.5027 32.704C62.6947 32.704 62.8927 32.686 63.0967 32.65C63.3007 32.614 63.4867 32.548 63.6547 32.452V33.928C63.4627 34.036 63.2107 34.108 62.8987 34.144C62.5987 34.192 62.3647 34.216 62.1967 34.216C61.5727 34.216 61.0867 34.132 60.7387 33.964C60.4027 33.784 60.1507 33.556 59.9827 33.28C59.8267 33.004 59.7307 32.698 59.6947 32.362C59.6707 32.014 59.6587 31.666 59.6587 31.318V26.872H57.7867V25.468H59.6587V23.074H61.2787V25.468H63.6007V26.872ZM71.7928 27.736C71.4928 27.424 71.1748 27.19 70.8388 27.034C70.5148 26.866 70.1248 26.782 69.6688 26.782C69.2248 26.782 68.8348 26.866 68.4988 27.034C68.1748 27.19 67.8988 27.412 67.6708 27.7C67.4548 27.976 67.2868 28.3 67.1668 28.672C67.0588 29.032 67.0048 29.41 67.0048 29.806C67.0048 30.202 67.0708 30.58 67.2028 30.94C67.3348 31.288 67.5208 31.594 67.7608 31.858C68.0008 32.122 68.2888 32.332 68.6248 32.488C68.9608 32.632 69.3388 32.704 69.7588 32.704C70.2148 32.704 70.6048 32.626 70.9288 32.47C71.2528 32.302 71.5528 32.062 71.8288 31.75L72.9808 32.902C72.5608 33.37 72.0688 33.706 71.5048 33.91C70.9528 34.114 70.3648 34.216 69.7408 34.216C69.0808 34.216 68.4748 34.108 67.9228 33.892C67.3828 33.676 66.9148 33.376 66.5188 32.992C66.1228 32.596 65.8168 32.128 65.6008 31.588C65.3848 31.036 65.2768 30.43 65.2768 29.77C65.2768 29.11 65.3848 28.504 65.6008 27.952C65.8168 27.4 66.1168 26.926 66.5008 26.53C66.8968 26.134 67.3648 25.828 67.9048 25.612C68.4568 25.384 69.0688 25.27 69.7408 25.27C70.3648 25.27 70.9588 25.384 71.5228 25.612C72.0988 25.828 72.5968 26.164 73.0168 26.62L71.7928 27.736ZM74.3744 20.392H75.9944V26.782H76.0304C76.2344 26.326 76.5884 25.96 77.0924 25.684C77.5964 25.396 78.1784 25.252 78.8384 25.252C79.2464 25.252 79.6364 25.318 80.0084 25.45C80.3924 25.57 80.7224 25.762 80.9984 26.026C81.2864 26.29 81.5144 26.632 81.6824 27.052C81.8504 27.46 81.9344 27.946 81.9344 28.51V34H80.3144V28.96C80.3144 28.564 80.2604 28.228 80.1524 27.952C80.0444 27.664 79.9004 27.436 79.7204 27.268C79.5404 27.088 79.3304 26.962 79.0904 26.89C78.8624 26.806 78.6224 26.764 78.3704 26.764C78.0344 26.764 77.7224 26.818 77.4344 26.926C77.1464 27.034 76.8944 27.208 76.6784 27.448C76.4624 27.676 76.2944 27.97 76.1744 28.33C76.0544 28.69 75.9944 29.116 75.9944 29.608V34H74.3744V20.392ZM89.5121 21.256H93.9581C94.8581 21.256 95.6441 21.358 96.3161 21.562C97.0001 21.766 97.5881 22.042 98.0801 22.39C98.5841 22.726 98.9981 23.116 99.3221 23.56C99.6581 24.004 99.9221 24.46 100.114 24.928C100.306 25.396 100.444 25.864 100.528 26.332C100.612 26.8 100.654 27.232 100.654 27.628C100.654 28.444 100.504 29.236 100.204 30.004C99.9041 30.76 99.4601 31.438 98.8721 32.038C98.2841 32.626 97.5521 33.1 96.6761 33.46C95.8121 33.82 94.8101 34 93.6701 34H89.5121V21.256ZM91.2401 32.38H93.4181C94.1501 32.38 94.8401 32.284 95.4881 32.092C96.1481 31.888 96.7241 31.588 97.2161 31.192C97.7081 30.796 98.0981 30.304 98.3861 29.716C98.6741 29.116 98.8181 28.42 98.8181 27.628C98.8181 27.22 98.7521 26.746 98.6201 26.206C98.4881 25.654 98.2361 25.132 97.8641 24.64C97.5041 24.148 97.0001 23.734 96.3521 23.398C95.7041 23.05 94.8641 22.876 93.8321 22.876H91.2401V32.38ZM103.952 30.328C103.952 30.7 104.03 31.042 104.186 31.354C104.354 31.654 104.57 31.912 104.834 32.128C105.098 32.344 105.404 32.512 105.752 32.632C106.1 32.752 106.46 32.812 106.832 32.812C107.336 32.812 107.774 32.698 108.146 32.47C108.518 32.23 108.86 31.918 109.172 31.534L110.396 32.47C109.496 33.634 108.236 34.216 106.616 34.216C105.944 34.216 105.332 34.102 104.78 33.874C104.24 33.646 103.778 33.334 103.394 32.938C103.022 32.53 102.734 32.056 102.53 31.516C102.326 30.964 102.224 30.37 102.224 29.734C102.224 29.098 102.332 28.51 102.548 27.97C102.776 27.418 103.082 26.944 103.466 26.548C103.862 26.14 104.33 25.822 104.87 25.594C105.41 25.366 105.998 25.252 106.634 25.252C107.39 25.252 108.026 25.384 108.542 25.648C109.07 25.912 109.502 26.26 109.838 26.692C110.174 27.112 110.414 27.592 110.558 28.132C110.714 28.66 110.792 29.2 110.792 29.752V30.328H103.952ZM109.064 29.032C109.052 28.672 108.992 28.342 108.884 28.042C108.788 27.742 108.638 27.484 108.434 27.268C108.23 27.04 107.972 26.866 107.66 26.746C107.36 26.614 107.006 26.548 106.598 26.548C106.202 26.548 105.836 26.626 105.5 26.782C105.176 26.926 104.9 27.118 104.672 27.358C104.444 27.598 104.264 27.868 104.132 28.168C104.012 28.456 103.952 28.744 103.952 29.032H109.064ZM112.73 25.468H114.242V26.8H114.278C114.314 26.68 114.404 26.53 114.548 26.35C114.704 26.17 114.896 26.002 115.124 25.846C115.364 25.678 115.64 25.54 115.952 25.432C116.276 25.312 116.63 25.252 117.014 25.252C117.65 25.252 118.184 25.384 118.616 25.648C119.048 25.912 119.402 26.308 119.678 26.836C119.954 26.308 120.344 25.912 120.848 25.648C121.352 25.384 121.862 25.252 122.378 25.252C123.038 25.252 123.578 25.36 123.998 25.576C124.418 25.792 124.748 26.08 124.988 26.44C125.228 26.788 125.39 27.19 125.474 27.646C125.57 28.09 125.618 28.552 125.618 29.032V34H123.998V29.248C123.998 28.924 123.974 28.612 123.926 28.312C123.89 28.012 123.806 27.748 123.674 27.52C123.542 27.292 123.356 27.112 123.116 26.98C122.876 26.836 122.558 26.764 122.162 26.764C121.382 26.764 120.824 27.004 120.488 27.484C120.152 27.964 119.984 28.582 119.984 29.338V34H118.364V29.536C118.364 29.128 118.34 28.756 118.292 28.42C118.256 28.084 118.172 27.796 118.04 27.556C117.92 27.304 117.74 27.112 117.5 26.98C117.272 26.836 116.96 26.764 116.564 26.764C116.276 26.764 115.994 26.824 115.718 26.944C115.454 27.052 115.22 27.22 115.016 27.448C114.812 27.676 114.65 27.97 114.53 28.33C114.41 28.678 114.35 29.092 114.35 29.572V34H112.73V25.468ZM129.372 29.734C129.372 30.166 129.438 30.568 129.57 30.94C129.702 31.3 129.888 31.612 130.128 31.876C130.368 32.128 130.662 32.332 131.01 32.488C131.358 32.632 131.748 32.704 132.18 32.704C132.612 32.704 133.002 32.632 133.35 32.488C133.698 32.332 133.992 32.128 134.232 31.876C134.472 31.612 134.658 31.3 134.79 30.94C134.922 30.568 134.988 30.166 134.988 29.734C134.988 29.302 134.922 28.906 134.79 28.546C134.658 28.174 134.472 27.862 134.232 27.61C133.992 27.346 133.698 27.142 133.35 26.998C133.002 26.842 132.612 26.764 132.18 26.764C131.748 26.764 131.358 26.842 131.01 26.998C130.662 27.142 130.368 27.346 130.128 27.61C129.888 27.862 129.702 28.174 129.57 28.546C129.438 28.906 129.372 29.302 129.372 29.734ZM127.644 29.734C127.644 29.11 127.758 28.528 127.986 27.988C128.226 27.448 128.55 26.974 128.958 26.566C129.366 26.158 129.846 25.84 130.398 25.612C130.95 25.372 131.544 25.252 132.18 25.252C132.816 25.252 133.41 25.372 133.962 25.612C134.514 25.84 134.994 26.158 135.402 26.566C135.81 26.974 136.128 27.448 136.356 27.988C136.596 28.528 136.716 29.11 136.716 29.734C136.716 30.358 136.596 30.946 136.356 31.498C136.128 32.038 135.81 32.512 135.402 32.92C134.994 33.316 134.514 33.634 133.962 33.874C133.41 34.102 132.816 34.216 132.18 34.216C131.544 34.216 130.95 34.102 130.398 33.874C129.846 33.634 129.366 33.316 128.958 32.92C128.55 32.512 128.226 32.038 127.986 31.498C127.758 30.946 127.644 30.358 127.644 29.734Z" fill="#242323"/>
<path d="M161.97 38.5C167.493 38.5 171.97 34.0228 171.97 28.5C171.97 22.9772 167.493 18.5 161.97 18.5C156.447 18.5 151.97 22.9772 151.97 28.5C151.97 34.0228 156.447 38.5 161.97 38.5Z" stroke="#292D32" stroke-width="1.3" stroke-linecap="round" stroke-linejoin="round"/>
<path d="M158.74 28.7301V27.0601C158.74 24.9801 160.21 24.1301 162.01 25.1701L163.46 26.0101L164.91 26.8501C166.71 27.8901 166.71 29.5901 164.91 30.6301L163.46 31.4701L162.01 32.3101C160.21 33.3501 158.74 32.5001 158.74 30.4201V28.7301Z" stroke="#292D32" stroke-width="1.3" stroke-miterlimit="10" stroke-linecap="round" stroke-linejoin="round"/>
</svg>
